<svg width="1182" height="154" viewBox="0 0 1182 154" fill="none" xmlns="http://www.w3.org/2000/svg">
<path d="M32.8 3H0.400001V151H32.8V3ZM90.6813 151V96.2C90.6813 83.8 98.4813 75.8 110.681 75.8C121.281 75.8 128.281 84 128.281 96.6V151H159.081V89.2C159.081 63 145.281 47.8 121.481 47.8C108.481 47.8 97.0813 52.8 90.8813 61.4L88.8813 51H59.8813V151H90.6813ZM171.77 51V76.6H185.57V151H216.37V76.6H240.37V51H216.37V43C216.37 34.4 219.17 27.8 231.77 27.8H240.37V1.39999C235.57 0.599993 230.77 0.199998 226.57 0.199998C201.17 0.199998 185.57 13.2 185.57 43V51H171.77ZM245.888 100.8C245.888 132.4 269.087 153.4 301.088 153.4C332.888 153.4 356.088 132.4 356.088 100.8C356.088 69.2 332.888 48 301.088 48C269.087 48 245.888 69.2 245.888 100.8ZM276.888 100.6C276.888 85.6 286.688 75.6 301.088 75.6C315.288 75.6 325.088 85.6 325.088 100.6C325.088 115.8 315.288 125.8 301.088 125.8C286.688 125.8 276.888 115.8 276.888 100.6ZM442.744 51C438.544 50 434.544 49.6 430.944 49.6C417.544 49.6 408.744 56.2 404.544 66L402.944 51.2H373.944V151H404.744V107.6C404.744 87.8 415.344 80 432.944 80H442.744V51ZM489.119 151V97.4C489.119 80.6 498.119 75.8 506.919 75.8C516.719 75.8 523.119 81.8 523.119 94.2V151H553.919V97.4C553.919 80.4 562.719 75.6 571.519 75.6C581.319 75.6 587.919 81.6 587.919 94.2V151H618.719V85.6C618.719 62.8 605.919 47.8 580.119 47.8C565.719 47.8 553.919 54.8 548.719 65.4C542.919 54.8 533.319 47.8 518.319 47.8C503.919 47.8 494.119 54.4 489.119 61.4L487.119 51H458.319V151H489.119ZM670.941 153.6C685.941 153.6 699.141 147 702.341 137.8L704.341 151H731.541V92.6C731.541 64 715.141 47.8 686.141 47.8C657.541 47.8 638.941 62.6 638.941 85.2H664.541C664.541 76.2 671.541 71.2 684.541 71.2C695.541 71.2 701.541 76.4 701.541 86.2V87.8L673.541 90C649.541 91.8 636.541 103.2 636.541 121.6C636.541 141.2 649.741 153.6 670.941 153.6ZM681.741 130.8C672.341 130.8 667.941 127.4 667.941 120.2C667.941 113.8 672.741 110.8 686.141 109.6L701.741 108.2V113.6C701.741 125 693.541 130.8 681.741 130.8ZM793.055 151V76.6H812.055V51H793.055V20H762.255V51H743.255V76.6H762.255V151H793.055ZM841.097 35.4C850.697 35.4 858.497 27.6 858.497 17.8C858.497 7.99999 850.697 0.399996 841.097 0.399996C831.297 0.399996 823.497 7.99999 823.497 17.8C823.497 27.6 831.297 35.4 841.097 35.4ZM825.897 151H856.697V51H825.897V151ZM874.403 100.8C874.403 132.4 897.603 153.4 929.603 153.4C961.403 153.4 984.603 132.4 984.603 100.8C984.603 69.2 961.403 48 929.603 48C897.603 48 874.403 69.2 874.403 100.8ZM905.403 100.6C905.403 85.6 915.203 75.6 929.603 75.6C943.803 75.6 953.603 85.6 953.603 100.6C953.603 115.8 943.803 125.8 929.603 125.8C915.203 125.8 905.403 115.8 905.403 100.6ZM1033.26 151V96.2C1033.26 83.8 1041.06 75.8 1053.26 75.8C1063.86 75.8 1070.86 84 1070.86 96.6V151H1101.66V89.2C1101.66 63 1087.86 47.8 1064.06 47.8C1051.06 47.8 1039.66 52.8 1033.46 61.4L1031.46 51H1002.46V151H1033.26Z" fill="#F5FDFF"/>
</svg>
