<svg width="1731" height="154" viewBox="0 0 1731 154" fill="none" xmlns="http://www.w3.org/2000/svg">
<path d="M84.8 93.2V64H32.8V33H94.6V3H0.400001V151H32.8V93.2H84.8ZM135.198 153.6C150.198 153.6 163.398 147 166.598 137.8L168.598 151H195.798V92.6C195.798 64 179.398 47.8 150.398 47.8C121.798 47.8 103.198 62.6 103.198 85.2H128.798C128.798 76.2 135.798 71.2 148.798 71.2C159.798 71.2 165.798 76.4 165.798 86.2V87.8L137.798 90C113.798 91.8 100.798 103.2 100.798 121.6C100.798 141.2 113.998 153.6 135.198 153.6ZM145.998 130.8C136.598 130.8 132.198 127.4 132.198 120.2C132.198 113.8 136.998 110.8 150.398 109.6L165.998 108.2V113.6C165.998 125 157.798 130.8 145.998 130.8ZM242.383 151H272.783L314.583 51H282.583L269.183 86C264.183 99 259.783 112 258.583 117.8C257.783 113.2 253.783 100.6 248.783 86L236.583 51H203.383L242.383 151ZM316.786 100.8C316.786 132.4 339.986 153.4 371.986 153.4C403.786 153.4 426.986 132.4 426.986 100.8C426.986 69.2 403.786 48 371.986 48C339.986 48 316.786 69.2 316.786 100.8ZM347.786 100.6C347.786 85.6 357.586 75.6 371.986 75.6C386.186 75.6 395.986 85.6 395.986 100.6C395.986 115.8 386.186 125.8 371.986 125.8C357.586 125.8 347.786 115.8 347.786 100.6ZM513.642 51C509.442 50 505.442 49.6 501.842 49.6C488.442 49.6 479.642 56.2 475.442 66L473.842 51.2H444.842V151H475.642V107.6C475.642 87.8 486.242 80 503.842 80H513.642V51ZM544.417 35.4C554.017 35.4 561.817 27.6 561.817 17.8C561.817 7.99999 554.017 0.399996 544.417 0.399996C534.617 0.399996 526.817 7.99999 526.817 17.8C526.817 27.6 534.617 35.4 544.417 35.4ZM529.217 151H560.017V51H529.217V151ZM623.523 151V76.6H642.523V51H623.523V20H592.723V51H573.723V76.6H592.723V151H623.523ZM701.789 153.6C729.189 153.6 748.989 139.4 752.589 117.2H724.389C722.189 124.4 713.989 128.6 702.389 128.6C688.789 128.6 681.389 122.4 679.589 109.2L752.189 108.8V101C752.189 68.4 732.589 47.8 701.189 47.8C670.989 47.8 649.989 69.6 649.989 100.8C649.989 131.6 671.589 153.6 701.789 153.6ZM701.389 72.8C713.789 72.8 721.589 79.6 721.589 90.2H679.989C682.389 78.2 689.189 72.8 701.389 72.8ZM885.158 151C927.358 151 956.758 120.6 956.758 77.4C956.758 33.4 926.558 3 883.158 3H827.158V151H885.158ZM879.958 33C906.758 33 922.558 49.4 922.558 77.4C922.558 104.8 907.558 121 881.958 121H859.558V33H879.958ZM990.706 35.4C1000.31 35.4 1008.11 27.6 1008.11 17.8C1008.11 7.99999 1000.31 0.399996 990.706 0.399996C980.906 0.399996 973.106 7.99999 973.106 17.8C973.106 27.6 980.906 35.4 990.706 35.4ZM975.506 151H1006.31V51H975.506V151ZM1057.81 151H1088.21L1130.01 51H1098.01L1084.61 86C1079.61 99 1075.21 112 1074.01 117.8C1073.21 113.2 1069.21 100.6 1064.21 86L1052.01 51H1018.81L1057.81 151ZM1184.02 153.6C1211.42 153.6 1231.22 139.4 1234.82 117.2H1206.62C1204.42 124.4 1196.22 128.6 1184.62 128.6C1171.02 128.6 1163.62 122.4 1161.82 109.2L1234.42 108.8V101C1234.42 68.4 1214.82 47.8 1183.42 47.8C1153.22 47.8 1132.22 69.6 1132.22 100.8C1132.22 131.6 1153.82 153.6 1184.02 153.6ZM1183.62 72.8C1196.02 72.8 1203.82 79.6 1203.82 90.2H1162.22C1164.62 78.2 1171.42 72.8 1183.62 72.8ZM1301.18 46C1301.18 70.2 1314.78 85.2 1341.18 90.6L1363.78 95.2C1373.58 97.2 1377.38 101.4 1377.38 109.6C1377.38 119 1368.18 124.8 1353.58 124.8C1339.18 124.8 1331.18 118.8 1331.18 108H1298.98C1298.98 135.8 1320.38 153.6 1353.38 153.6C1387.38 153.6 1409.78 135 1409.78 106.4C1409.78 83 1397.18 70.4 1370.78 65L1348.58 60.4C1338.18 58.2 1333.58 53.8 1333.58 44.8C1333.58 35 1341.98 29 1355.18 29C1367.38 29 1375.18 35.4 1375.18 45.8H1407.38C1407.38 17.8 1387.38 0.199998 1355.58 0.199998C1323.78 0.199998 1301.18 19.2 1301.18 46ZM1442.66 35.4C1452.26 35.4 1460.06 27.6 1460.06 17.8C1460.06 7.99999 1452.26 0.399996 1442.66 0.399996C1432.86 0.399996 1425.06 7.99999 1425.06 17.8C1425.06 27.6 1432.86 35.4 1442.66 35.4ZM1427.46 151H1458.26V51H1427.46V151ZM1521.77 151V76.6H1540.77V51H1521.77V20H1490.97V51H1471.97V76.6H1490.97V151H1521.77ZM1600.03 153.6C1627.43 153.6 1647.23 139.4 1650.83 117.2H1622.63C1620.43 124.4 1612.23 128.6 1600.63 128.6C1587.03 128.6 1579.63 122.4 1577.83 109.2L1650.43 108.8V101C1650.43 68.4 1630.83 47.8 1599.43 47.8C1569.23 47.8 1548.23 69.6 1548.23 100.8C1548.23 131.6 1569.83 153.6 1600.03 153.6ZM1599.63 72.8C1612.03 72.8 1619.83 79.6 1619.83 90.2H1578.23C1580.63 78.2 1587.43 72.8 1599.63 72.8Z" fill="#50535E"/>
</svg>
