<svg width="1406" height="202" viewBox="0 0 1406 202" fill="none" xmlns="http://www.w3.org/2000/svg">
<path d="M44.4 151H76.2L104 53.8L131 151H162.6L207.8 3H174.8L155 67.6C152.4 76.2 150.2 84.4 147.2 99.4C144.6 85.2 142.2 76.2 139.8 67.2L122.4 3H86.2L68 67.2C65.4 76.4 63 84.8 60.6 99.4C58.2 84.8 55.8 76 53.2 67.2L33.8 3H1.19209e-07L44.4 151ZM237.667 35.4C247.267 35.4 255.067 27.6 255.067 17.8C255.067 7.99999 247.267 0.399996 237.667 0.399996C227.867 0.399996 220.067 7.99999 220.067 17.8C220.067 27.6 227.867 35.4 237.667 35.4ZM222.467 151H253.267V51H222.467V151ZM316.773 151V76.6H335.773V51H316.773V20H285.973V51H266.973V76.6H285.973V151H316.773ZM380.416 151V96.2C380.416 83.8 388.216 75.8 400.416 75.8C411.016 75.8 418.016 84 418.016 96.6V151H448.816V89.2C448.816 63 435.016 47.8 411.216 47.8C398.216 47.8 386.816 52.8 380.616 61.4L378.616 51H349.616V151H380.416ZM517.305 153.6C544.705 153.6 564.505 139.4 568.105 117.2H539.905C537.705 124.4 529.505 128.6 517.905 128.6C504.305 128.6 496.905 122.4 495.105 109.2L567.705 108.8V101C567.705 68.4 548.105 47.8 516.705 47.8C486.505 47.8 465.505 69.6 465.505 100.8C465.505 131.6 487.105 153.6 517.305 153.6ZM516.905 72.8C529.305 72.8 537.105 79.6 537.105 90.2H495.505C497.905 78.2 504.705 72.8 516.905 72.8ZM578.744 119.4C578.744 139.6 595.344 153.6 621.744 153.6C647.744 153.6 665.944 140.6 665.944 119.2C665.944 103.2 656.944 95.6 640.544 92L621.944 88C614.944 86.4 611.144 83.8 611.144 79.2C611.144 73.8 615.544 70.2 622.544 70.2C629.944 70.2 634.144 74.8 634.144 81.6H663.344C663.344 61.4 647.144 47.8 623.944 47.8C599.944 47.8 582.144 59.8 582.144 80.6C582.144 98.2 591.144 106.2 609.544 110.2L627.944 114.2C635.344 115.8 636.944 119 636.944 122C636.944 127.2 632.544 130.6 622.944 130.6C613.544 130.6 608.344 126.4 607.944 119.4H578.744ZM674.838 119.4C674.838 139.6 691.438 153.6 717.838 153.6C743.838 153.6 762.038 140.6 762.038 119.2C762.038 103.2 753.038 95.6 736.638 92L718.038 88C711.038 86.4 707.238 83.8 707.238 79.2C707.238 73.8 711.638 70.2 718.638 70.2C726.038 70.2 730.238 74.8 730.238 81.6H759.438C759.438 61.4 743.238 47.8 720.038 47.8C696.038 47.8 678.238 59.8 678.238 80.6C678.238 98.2 687.238 106.2 705.638 110.2L724.038 114.2C731.438 115.8 733.038 119 733.038 122C733.038 127.2 728.638 130.6 719.038 130.6C709.638 130.6 704.438 126.4 704.038 119.4H674.838ZM826.661 46C826.661 70.2 840.261 85.2 866.661 90.6L889.261 95.2C899.061 97.2 902.861 101.4 902.861 109.6C902.861 119 893.661 124.8 879.061 124.8C864.661 124.8 856.661 118.8 856.661 108H824.461C824.461 135.8 845.861 153.6 878.861 153.6C912.861 153.6 935.261 135 935.261 106.4C935.261 83 922.661 70.4 896.261 65L874.061 60.4C863.661 58.2 859.061 53.8 859.061 44.8C859.061 35 867.461 29 880.661 29C892.861 29 900.661 35.4 900.661 45.8H932.861C932.861 17.8 912.861 0.199998 881.061 0.199998C849.261 0.199998 826.661 19.2 826.661 46ZM993.336 151V76.6H1012.34V51H993.336V20H962.536V51H943.536V76.6H962.536V151H993.336ZM1019.8 100.8C1019.8 132.4 1043 153.4 1075 153.4C1106.8 153.4 1130 132.4 1130 100.8C1130 69.2 1106.8 48 1075 48C1043 48 1019.8 69.2 1019.8 100.8ZM1050.8 100.6C1050.8 85.6 1060.6 75.6 1075 75.6C1089.2 75.6 1099 85.6 1099 100.6C1099 115.8 1089.2 125.8 1075 125.8C1060.6 125.8 1050.8 115.8 1050.8 100.6ZM1216.66 51C1212.46 50 1208.46 49.6 1204.86 49.6C1191.46 49.6 1182.66 56.2 1178.46 66L1176.86 51.2H1147.86V151H1178.66V107.6C1178.66 87.8 1189.26 80 1206.86 80H1216.66V51ZM1227.16 199C1233.16 200.8 1240.16 201.8 1247.56 201.8C1265.16 201.8 1276.36 193.2 1284.76 172.8L1335.56 51H1303.56L1279.36 115.2L1257.56 51H1224.56L1264.76 154.4L1262.96 159.2C1258.96 170 1254.56 173.2 1244.16 173.2H1227.16V199Z" fill="#F5FDFF"/>
</svg>
