<svg width="120" height="105" viewBox="0 0 120 105" fill="none" xmlns="http://www.w3.org/2000/svg">
<g clip-path="url(#clip0_706_3728)">
<path d="M2.42334 42.8123V75.2829H118.964V42.8123H2.42334ZM115.406 71.8404H5.98115V46.2548H115.406V71.8404Z" fill="#161616"/>
<path d="M87.8907 68.7846H84.7547V68.7541L82.9172 61.4707L82.2844 63.3736V68.7846H79.261V49.306H82.2844V58.3516L84.7946 49.3013H87.7524L85.1485 58.4805L87.8907 68.7846Z" fill="#161616"/>
<path d="M16.9945 68.7846H13.8585V68.7541L12.021 61.4707L11.3882 63.3736V68.7846H8.36011V49.3059H11.3812V58.3516L13.8914 49.3059H16.8492L14.2523 58.4805L16.9945 68.7846Z" fill="#161616"/>
<path d="M24.9492 68.7846H18.2976V49.3059H24.9492V52.1368H21.3281V57.3908H24.0023V60.1279H21.3281V65.9537H24.9562L24.9492 68.7846Z" fill="#161616"/>
<path d="M33.3234 68.7846H26.6719V49.3059H33.3234V52.1368H29.6953V57.3908H32.3695V60.1279H29.6953V65.9537H33.3234V68.7846Z" fill="#161616"/>
<path d="M46.7695 49.3059H49.6875L50.7375 62.7432L52.2328 49.3059H55.35L56.9203 62.7432L57.9305 49.3059H60.8133L58.7953 68.7846H55.3125L53.843 55.5113H53.8148L52.1883 68.7846H48.7078L46.7695 49.3059Z" fill="#161616"/>
<path d="M64.3524 65.1639H66.6376L66.9985 68.7846H70.1438L67.7672 49.3059H63.4102L60.7922 68.7846H63.9399L64.3524 65.1639ZM66.3446 62.3378H64.6711L65.5454 53.0109H65.5993L66.3446 62.3378Z" fill="#161616"/>
<path d="M77.7866 68.7846H71.7983V49.3059H74.8218V65.9443H77.7866V68.7846Z" fill="#161616"/>
<path d="M92.2149 68.7846H89.1938V49.3059H92.2149V68.7846Z" fill="#161616"/>
<path d="M96.7314 68.7846H94.0923V49.3059H96.6704L100.399 59.992V49.3059H103.036V68.7846H100.505L96.7314 57.4658V68.7846Z" fill="#161616"/>
<path d="M38.0694 61.9839H38.9343C41.8007 61.9839 43.0241 60.6505 43.0241 57.5314V54.1732C43.0241 50.487 41.9929 49.3059 38.7796 49.3059H35.0483V68.7846H38.0694V61.9839ZM40.0007 57.2361C40.0007 59.0195 39.5835 59.2749 38.6882 59.2749H38.0694V52.0477H38.6882C39.5835 52.0477 40.0007 52.3032 40.0007 54.0842V57.2361Z" fill="#161616"/>
<path d="M104.684 64.0509V54.2437C104.684 50.8175 106.062 49.1514 108.902 49.1514C112.472 49.1514 113.121 51.7081 113.121 55.1529L110.14 55.4435C110.14 52.397 109.788 51.7924 108.9 51.7924C108.012 51.7924 107.709 52.5072 107.709 54.3702V63.9056C107.709 65.5859 108.03 66.2725 108.968 66.2725C110.016 66.2725 110.198 65.3164 110.198 64.1095V60.435H108.703V57.9955H113.145V68.7753H111.483L111.014 67.3177C110.623 68.3418 109.669 68.9276 108.347 68.9276C105.816 68.937 104.684 67.3903 104.684 64.0509Z" fill="#161616"/>
<path d="M7.08516 30.1108H4.66172V39.3697H2.42344V30.1108H0V28.2759H7.08516V30.1108Z" fill="#161616"/>
<path d="M10.3384 28.2759V32.5175H12.9493V28.2759H15.1853V39.3697H12.9493V34.4485H10.3384V39.3697H8.1001V28.2759H10.3384Z" fill="#161616"/>
<path d="M22.9172 30.1108H18.9563V32.719H22.6852V34.5539H18.9563V37.5371H23.0743V39.3697H16.718V28.2759H22.9172V30.1108Z" fill="#161616"/>
<path d="M94.2187 78.7161V80.551H90.2624V83.1616H93.9843V84.9941H90.2624V89.8099H88.0242V78.7161H94.2187Z" fill="#161616"/>
<path d="M97.4226 86.454C97.4213 86.7112 97.4393 86.9682 97.4765 87.2227C97.5061 87.4356 97.5744 87.6413 97.678 87.8296C97.7745 87.998 97.9146 88.1372 98.0835 88.2327C98.2816 88.3378 98.5039 88.3888 98.728 88.3803C98.9545 88.3907 99.1797 88.3397 99.3796 88.2327C99.5448 88.1355 99.6814 87.9965 99.7757 87.8296C99.8801 87.6414 99.9492 87.4357 99.9796 87.2227C100.017 86.9682 100.035 86.7112 100.033 86.454V78.7207H102.269V86.454C102.288 87.0504 102.189 87.6445 101.976 88.2022C101.805 88.6266 101.532 89.0023 101.182 89.2966C100.853 89.5664 100.464 89.7529 100.048 89.8403C99.6141 89.9351 99.1717 89.9822 98.728 89.9809C98.2844 89.9817 97.8418 89.9401 97.4062 89.8567C96.9939 89.7795 96.6055 89.6069 96.2718 89.3529C95.9182 89.0678 95.6452 88.6954 95.4796 88.2725C95.263 87.6916 95.1627 87.0737 95.1843 86.454V78.7207H97.4226V86.454Z" fill="#161616"/>
<path d="M108.996 86.3158H109.029V78.7161H111.08V89.8099H108.532L105.797 82.0414H105.766V89.8099H103.713V78.7161H106.292L108.996 86.3158Z" fill="#161616"/>
<path d="M116.332 78.716C116.979 78.6905 117.622 78.8215 118.207 79.098C118.676 79.3443 119.062 79.7223 119.318 80.1854C119.6 80.7144 119.782 81.2913 119.852 81.8867C119.951 82.623 119.998 83.3654 119.993 84.1083C120.003 84.9585 119.943 85.808 119.815 86.6486C119.728 87.2758 119.52 87.8801 119.201 88.4272C118.922 88.8823 118.514 89.2444 118.029 89.4677C117.445 89.7143 116.814 89.8311 116.18 89.8098H112.667V78.716H116.332ZM115.899 88.1624C116.223 88.1762 116.546 88.1069 116.836 87.9609C117.1 87.8092 117.306 87.5743 117.422 87.293C117.582 86.9019 117.676 86.487 117.701 86.065C117.748 85.5589 117.771 84.9261 117.771 84.1715C117.771 83.5388 117.751 82.9842 117.71 82.5077C117.684 82.101 117.597 81.7005 117.452 81.3196C117.341 81.0266 117.14 80.7764 116.878 80.6048C116.568 80.432 116.215 80.3508 115.861 80.3705H114.912V88.1694L115.899 88.1624Z" fill="#161616"/>
<path d="M12.9468 94.5319V95.7153H10.078V96.1231H12.3538V98.893H2.93193V96.1231H5.02725V95.7153H2.29443V94.5319H5.02725V93.9858H6.75693V96.1231H8.34834V93.9858H10.078V94.5319H12.9468ZM4.84443 102.769L6.25068 102.043L7.52568 102.678C8.04345 102.509 8.54601 102.296 9.02803 102.043H5.80068C5.1065 102.416 4.39212 102.75 3.66084 103.043C3.32647 102.65 2.99287 102.239 2.66006 101.813C4.05381 101.39 5.11553 100.935 5.84522 100.449H4.02412V101.267H2.29443V99.2187H12.9468V101.267H11.4444V102.132C9.68506 103.62 6.96865 104.577 3.29522 105C3.10532 104.527 2.87723 104.07 2.61318 103.634C3.62364 103.552 4.62898 103.416 5.6249 103.226L4.84443 102.769ZM4.66162 97.2526V97.7541H5.6249V97.2526H4.66162ZM7.16475 97.2526V97.7541H8.16787V97.2526H7.16475ZM11.2171 100.44H8.02959L7.5749 100.847H11.2171V100.44ZM10.671 97.2526H9.67022V97.7541H10.671V97.2526Z" fill="#161616"/>
<path d="M23.189 103.681C23.5464 102.851 23.8501 102 24.0983 101.131L25.739 101.633C25.4395 102.546 25.0898 103.443 24.6913 104.318L23.189 103.681ZM28.1108 94.3938H33.6655V100.721H29.2124C29.578 101.087 29.9413 101.466 30.3069 101.86L29.0319 102.907C28.885 102.749 28.748 102.581 28.6218 102.406L27.7101 101.358L28.5749 100.721H28.1202V98.5815L27.2554 99.5376L26.5733 98.8557V100.904H24.9327V98.9916C24.5581 99.6417 24.0986 100.239 23.5663 100.768C23.5358 100.585 23.489 100.283 23.4304 99.8563C23.339 99.3103 23.278 98.919 23.2476 98.6729C23.7978 98.161 24.2595 97.5616 24.614 96.8989H23.4608V95.3968H24.9187V93.9907H26.5593V95.3968H27.7312V96.8989H26.5593V97.7637L26.9694 97.3536C27.3022 97.5973 27.6812 97.9004 28.1062 98.2628L28.1108 94.3938ZM31.4812 101.633L32.9812 100.948C33.3957 101.596 33.776 102.265 34.1202 102.952C34.2421 103.165 34.3335 103.315 34.3944 103.407L32.8007 104.091C32.5874 103.634 32.346 103.165 32.0718 102.685C32.0066 102.996 31.9148 103.301 31.7976 103.596C31.5569 104.324 30.9507 104.689 29.9788 104.689H27.3749C26.2812 104.718 25.7507 104.157 25.7835 103.004V101.274H27.5577V102.504C27.5577 103.02 27.7851 103.263 28.2397 103.233H29.5147C29.9718 103.264 30.2179 103.081 30.2905 102.685C30.3049 102.486 30.3347 102.289 30.3796 102.094C30.4052 102.005 30.4209 101.913 30.4265 101.82C30.546 101.853 30.7452 101.912 31.0171 102.003C31.2836 102.114 31.5578 102.205 31.8374 102.277C31.7807 102.103 31.6872 101.943 31.5632 101.808C31.5444 101.745 31.5142 101.685 31.4741 101.633H31.4812ZM29.8405 95.6686V96.1701H31.9358V95.6686H29.8405ZM29.8405 97.309V97.8082H31.9358V97.309H29.8405ZM29.8405 98.9002V99.4017H31.9358V98.8932L29.8405 98.9002Z" fill="#161616"/>
<path d="M51.3772 103.179C52.0757 103.27 53.0319 103.407 54.246 103.589C54.7616 103.62 55.139 103.65 55.3827 103.681L54.9726 104.956L50.5569 104.283L51.014 103.191H48.8272L49.3733 104.283C49.071 104.344 48.6304 104.421 48.0538 104.517C46.7788 104.73 45.7929 104.897 45.096 105.019C45.0078 104.841 44.9296 104.659 44.8616 104.473C44.7093 104.11 44.5897 103.835 44.4983 103.653C45.803 103.564 47.1382 103.412 48.5038 103.198H45.6421V98.5369L45.3233 98.7713L44.4116 97.4519C44.6858 97.2691 45.0796 97.0278 45.5835 96.7231C46.0874 96.4185 46.4952 96.1466 46.7671 95.9943L47.8147 97.0864C47.6319 97.2082 47.3741 97.3769 47.0413 97.5878C46.4647 97.9511 46.0077 98.2557 45.6749 98.4971H48.178C48.0361 98.2103 47.869 97.9366 47.6788 97.6792C47.6107 97.5929 47.5495 97.5012 47.496 97.4051C49.2866 97.102 50.2577 96.6333 50.4093 95.999C50.4106 95.9011 50.4426 95.806 50.5007 95.7272H49.6358C49.3262 96.1271 48.975 96.4932 48.5882 96.8192C48.2974 96.5897 47.9938 96.3769 47.6788 96.1818C47.5265 96.0904 47.4046 96.0154 47.3132 95.9474L47.5874 95.7131H44.7749V94.3469H47.9155V95.3944C48.3408 94.968 48.6946 94.4758 48.9632 93.9368L50.646 94.0727L50.3741 94.5742H55.0616V95.7131L54.471 96.7137L52.8772 96.3505L53.2874 95.7131H52.1483C52.147 95.8054 52.132 95.897 52.1038 95.9849C52.4679 96.6223 53.5905 97.0629 55.4718 97.3066C55.2682 97.7431 55.0405 98.1679 54.7897 98.5791C54.7097 98.5773 54.6305 98.5622 54.5554 98.5346H54.2811V103.177L51.3772 103.179ZM47.4632 99.4462V99.7649H52.5163V99.4462H47.4632ZM47.4632 100.63V101.002H52.5163V100.637L47.4632 100.63ZM47.4632 101.86V102.223H52.5163V101.86H47.4632ZM54.0632 98.4901C52.8491 98.2495 51.9538 97.8589 51.3772 97.3184C50.9835 97.7425 50.1163 98.1362 48.7827 98.4901H54.0632Z" fill="#161616"/>
<path d="M73.7392 94.0305C73.7392 95.0023 73.7243 95.685 73.6946 96.0787H76.2446C76.2446 98.3253 76.2142 100.647 76.1532 103.043C76.1235 104.045 75.6548 104.576 74.747 104.637H73.9712C73.547 104.665 73.2446 104.681 73.0618 104.681C73.0314 104.447 72.954 104.06 72.8274 103.545C72.8031 103.44 72.7874 103.333 72.7806 103.226C72.6306 103.46 72.3564 103.864 71.9626 104.41C71.8158 104.599 71.6789 104.796 71.5524 105C71.461 104.878 71.3392 104.712 71.1892 104.499L70.7813 103.953C70.3548 103.983 69.5978 104.044 68.5056 104.135C67.1696 104.257 66.2439 104.346 65.7282 104.41L65.5923 102.725H66.0939V94.3937H70.7813V102.408C70.9193 102.409 71.0569 102.394 71.1915 102.364C71.6774 101.604 71.9196 100.056 71.9181 97.7191H71.0157V96.0787H71.972C72.0024 95.7459 72.0165 95.0616 72.0165 94.0305H73.7392ZM67.7767 95.9428V97.2176H69.1407V95.9428H67.7767ZM67.7767 98.6283V99.9032H69.1407V98.6283H67.7767ZM67.7767 102.589C68.2337 102.589 68.6901 102.558 69.1431 102.497V101.314H67.7767V102.589ZM74.5149 97.7214H73.6478C73.5868 100.362 73.329 102.122 72.8743 103.001H73.786C73.8681 103.011 73.9514 103.003 74.0301 102.978C74.1088 102.952 74.181 102.91 74.2416 102.854C74.3023 102.797 74.35 102.729 74.3814 102.652C74.4128 102.576 74.4272 102.493 74.4235 102.411C74.4845 101.042 74.5149 99.479 74.5149 97.7214Z" fill="#161616"/>
<path d="M86.8218 95.8957H91.9218V97.3018H86.8218V95.8957ZM87.1405 97.6721H91.5936V98.893H87.1405V97.6721ZM87.1405 99.2656H91.5936V100.533H87.1405V99.2656ZM87.1874 104.864V100.904H91.5562V104.864H89.9999V104.409H88.828V104.864H87.1874ZM87.3679 94.2132H91.4647V95.4411H87.3679V94.2132ZM88.828 102.27V103.135H89.9999V102.27H88.828ZM92.0155 97.583H93.9726V94.0679H95.7937V97.583H97.8866V99.3125H95.7937V104.866H93.9726V99.3125H92.0155V97.583Z" fill="#161616"/>
<path d="M108.736 97.0792H112.516V96.8073H108.047V95.7598H112.5V95.488H108.783V94.5319H112.516V93.9858H114.427V94.5319H118.296V95.7598H119.062V96.8073H118.289V97.9556H114.427V98.2298H118.296V99.0031H114.427V99.2773H118.98V100.233H108.098V99.2773H112.516V99.0031H108.645V98.2298H112.516V97.9556H108.736V97.0792ZM108.047 103.58H119.062V104.627H108.047V103.58ZM108.776 100.484H118.336V103.296H108.783L108.776 100.484ZM110.55 101.304V101.623H112.69V101.304H110.55ZM110.55 102.214V102.532H112.69V102.214H110.55ZM116.559 101.304H114.375V101.623H116.559V101.304ZM114.375 102.542H116.559V102.223H114.375V102.542ZM116.606 95.488H114.42V95.7598H116.606V95.488ZM114.42 97.0792H116.606V96.8073H114.42V97.0792Z" fill="#161616"/>
<path d="M26.7446 35.1611H81.2931V39.3699H84.1407V32.4849H26.7446V35.1611Z" fill="#161616"/>
<path d="M84.1405 82.9249H5.271V78.7161H2.42334V85.6011H84.1405V82.9249Z" fill="#161616"/>
<path d="M96.7969 23.1087C96.8367 23.1321 96.8812 23.1626 96.9141 23.1087C96.975 23.0173 97.0125 22.9048 97.0664 22.8087C97.2039 22.5624 97.3606 22.3273 97.5352 22.1057C97.6561 21.9391 97.7901 21.7824 97.9359 21.637C98.0672 21.5128 98.2078 21.4027 98.3508 21.2855C98.4047 21.248 98.3883 21.2386 98.3344 21.2503C97.9945 21.3136 97.65 21.3417 97.3078 21.3839C97.1555 21.4003 96.7664 21.4636 96.7336 21.4683C96.7231 21.4726 96.7135 21.479 96.7055 21.487C96.6169 21.5994 96.5385 21.7194 96.4711 21.8456C96.3704 22.0616 96.3478 22.3059 96.4072 22.5367C96.4667 22.7675 96.6044 22.9705 96.7969 23.111" fill="#161616"/>
<path d="M104.791 7.97942C104.809 8.0396 104.831 8.09836 104.857 8.15518C104.868 8.17517 104.886 8.19096 104.907 8.20023C104.928 8.20951 104.952 8.21179 104.974 8.20674C105.07 8.18799 105.159 8.13175 105.253 8.10831C105.309 8.09659 105.359 8.0755 105.405 8.10831C105.467 8.18583 105.556 8.2376 105.654 8.2536C105.752 8.2536 105.802 8.20205 105.877 8.15284C105.907 8.13409 106.027 8.23017 106.055 8.24657C106.083 8.26298 106.334 8.42467 106.303 8.26766C106.264 8.13487 106.239 7.99811 106.23 7.85991C106.231 7.75642 106.253 7.65421 106.296 7.55995C106.319 7.51073 106.46 7.3256 106.35 7.29045C106.278 7.28183 106.206 7.29663 106.144 7.33263C106.053 7.38887 105.959 7.43974 105.862 7.48496C105.696 7.52656 105.519 7.50397 105.368 7.42168C105.291 7.3795 105.216 7.33029 105.134 7.28108C105.054 7.20997 104.964 7.15148 104.866 7.10766C104.824 7.09126 104.752 7.06548 104.721 7.10766C104.685 7.19589 104.672 7.2919 104.684 7.38653C104.683 7.58366 104.717 7.7794 104.782 7.96536" fill="#161616"/>
<path d="M104.18 6.43971C104.259 6.43971 104.339 6.43971 104.414 6.43971C104.489 6.43971 104.613 6.4608 104.578 6.36706C104.562 6.32957 104.512 6.29676 104.484 6.27098C104.456 6.2452 104.414 6.19365 104.374 6.18662C104.29 6.17255 104.184 6.25692 104.128 6.31082C104.072 6.36472 104.06 6.45143 104.175 6.43737" fill="#161616"/>
<path d="M109.687 14.8902C109.804 14.8242 109.934 14.7828 110.067 14.7683C110.186 14.7814 110.3 14.8215 110.4 14.8855C110.52 14.9488 110.634 15.0097 110.752 15.08C110.805 15.1131 110.855 15.1524 110.899 15.1972C110.918 15.2159 110.916 15.23 110.944 15.2206C110.962 15.216 110.979 15.2089 110.995 15.1995C111.028 15.1805 111.056 15.153 111.075 15.1199C111.166 14.9535 110.984 14.8855 110.841 14.8668C110.745 14.8527 110.648 14.8316 110.555 14.8105C110.517 14.8105 110.442 14.7965 110.421 14.7637C110.367 14.684 110.484 14.6441 110.536 14.6254C110.617 14.5943 110.691 14.5482 110.754 14.4895C110.829 14.4182 110.884 14.3296 110.917 14.2315C110.949 14.1334 110.956 14.0289 110.938 13.9272C110.92 13.8256 110.877 13.7301 110.813 13.6491C110.749 13.5681 110.666 13.5042 110.571 13.4631C110.52 13.4396 110.412 13.3974 110.355 13.4302C110.299 13.4631 110.355 13.5427 110.379 13.5802C110.409 13.6555 110.409 13.7393 110.379 13.8146C110.35 13.8815 110.301 13.9378 110.239 13.9756C110.177 14.0134 110.105 14.0309 110.032 14.0255C109.946 14.0156 109.864 13.9806 109.798 13.9247C109.779 13.9106 109.746 13.8708 109.72 13.8872C109.695 13.9036 109.685 13.9505 109.683 13.981C109.674 14.07 109.686 14.1598 109.718 14.2434C109.732 14.2786 109.765 14.3184 109.751 14.3512C109.737 14.384 109.716 14.4379 109.697 14.4801C109.641 14.6137 109.582 14.7473 109.533 14.8832C109.5 14.9699 109.631 14.8832 109.664 14.8832" fill="#161616"/>
<path d="M107.812 31.5006C107.878 31.4384 107.936 31.3692 107.986 31.2943C108.05 31.2151 108.108 31.1313 108.159 31.0436C108.261 30.8636 108.34 30.6715 108.394 30.4718C108.457 30.2739 108.535 30.0812 108.628 29.8953C108.708 29.7409 108.767 29.576 108.802 29.4055C108.824 29.1041 108.802 28.801 108.738 28.5056C108.722 28.4002 108.703 28.2947 108.689 28.1869C108.689 28.1424 108.656 28.044 108.593 28.0534C108.53 28.0627 108.518 28.1729 108.506 28.2221C108.468 28.3869 108.405 28.545 108.319 28.6908C108.218 28.8618 108.054 28.9884 108.023 29.197C108.023 29.3453 108.053 29.4922 108.112 29.6282C108.131 29.7039 108.135 29.7827 108.123 29.8599C108.112 29.9371 108.085 30.0113 108.045 30.0781C107.966 30.2155 107.874 30.345 107.77 30.4648C107.658 30.5801 107.537 30.6859 107.407 30.7811C107.116 31.0378 106.926 31.3903 106.873 31.7747C106.856 31.8638 106.816 32.1028 106.976 32.0841C107.07 32.0588 107.158 32.0123 107.231 31.9482C107.437 31.8075 107.632 31.6529 107.824 31.4935" fill="#161616"/>
<path d="M115.434 36.1897C115.388 36.1903 115.341 36.1848 115.296 36.1733C115.255 36.1549 115.212 36.1422 115.167 36.1358C115.085 36.1216 115.002 36.1242 114.921 36.1435C114.84 36.1629 114.765 36.1985 114.698 36.2483C114.626 36.3069 114.567 36.3795 114.502 36.4428C114.419 36.5179 114.321 36.5753 114.216 36.6115C114.035 36.6789 113.848 36.7268 113.658 36.7545C113.25 36.7899 112.84 36.747 112.448 36.6279C112.338 36.6067 112.23 36.5793 112.123 36.5459C112.071 36.5295 112.022 36.5108 111.973 36.4897C111.919 36.4727 111.869 36.4456 111.825 36.41C111.799 36.3725 111.802 36.3116 111.785 36.2694C111.769 36.2286 111.744 36.1923 111.711 36.1637C111.678 36.1351 111.638 36.1151 111.595 36.1054C111.551 36.0923 111.505 36.0837 111.459 36.0796C111.424 36.0796 111.405 36.0444 111.382 36.0187C111.344 35.9717 111.312 35.9206 111.286 35.8663C111.232 35.7585 111.18 35.6531 111.129 35.5453C110.979 35.2336 110.836 34.9219 110.698 34.6079C110.333 33.7718 110.01 32.9177 109.732 32.0489C109.622 31.702 109.516 31.3458 109.42 31.0014C109.392 30.8745 109.357 30.7493 109.315 30.6264C109.296 30.5772 109.277 30.4858 109.209 30.4811C109.141 30.4764 109.05 30.5749 109.012 30.6452C108.916 30.834 108.831 31.0289 108.759 31.2287C108.703 31.4039 108.631 31.5741 108.546 31.7372C108.504 31.8101 108.454 31.8778 108.396 31.9387C108.366 31.9695 108.334 31.9984 108.3 32.0254C108.267 32.0512 108.218 32.07 108.206 32.1121C108.145 32.3301 108.262 32.5176 108.321 32.7214C108.347 32.8175 108.415 33.0144 108.337 33.1034C108.26 33.1925 108.131 33.0659 108.08 33.0191C107.967 32.8981 107.872 32.7616 107.798 32.6136C107.747 32.5269 107.695 32.4215 107.585 32.4426C107.469 32.483 107.359 32.5407 107.259 32.6136C107.217 32.6394 107.159 32.6465 107.175 32.6957C107.229 32.8689 107.293 33.0388 107.367 33.2042C107.521 33.5522 107.698 33.8889 107.899 34.2119C108.114 34.5632 108.349 34.902 108.602 35.2266C108.865 35.5664 109.153 35.8921 109.392 36.246C109.552 36.479 109.693 36.7252 109.812 36.9818C109.884 37.1833 110.264 38.3058 110.302 38.4019C110.445 38.7135 110.654 38.9902 110.916 39.2128C111.035 39.3206 111.15 39.4471 111.248 39.5643C111.295 39.6135 111.291 39.6252 111.354 39.6065C111.491 39.5649 111.626 39.5148 111.757 39.4565C111.94 39.3769 112.117 39.282 112.284 39.1729C112.298 39.1729 112.446 39.0745 112.441 39.0511C112.402 38.9182 112.378 38.7815 112.369 38.6433C112.576 38.5628 112.788 38.4963 113.004 38.4441C113.334 38.3725 113.659 38.2817 113.979 38.1723C114.203 38.0961 114.412 37.9819 114.598 37.8348C114.801 37.6611 114.985 37.4645 115.144 37.249C115.293 37.0572 115.421 36.8497 115.526 36.6303C115.565 36.5511 115.595 36.4678 115.615 36.3819C115.634 36.2928 115.521 36.1991 115.439 36.1921" fill="#161616"/>
<path d="M102.511 24.1844C102.769 23.7503 103.068 23.3422 103.404 22.9658C103.642 22.74 103.902 22.539 104.18 22.3658C104.201 22.3494 104.292 22.2909 104.234 22.2627C104.156 22.2444 104.074 22.2501 103.999 22.2791C103.675 22.3774 103.372 22.5364 103.106 22.7478C102.797 22.9714 102.523 23.2409 102.295 23.5469C101.861 24.1935 101.487 24.8783 101.177 25.5928C101.033 25.9074 100.864 26.2098 100.671 26.4973C100.56 26.6656 100.433 26.8226 100.292 26.966C100.129 27.1148 99.9563 27.2511 99.7736 27.3738C99.6212 27.4792 99.4642 27.58 99.3048 27.6925C99.1594 27.7759 99.0469 27.9065 98.9861 28.0627C98.9822 28.1467 98.9736 28.2305 98.9603 28.3135C98.9331 28.3887 98.8871 28.4556 98.8267 28.508C98.7211 28.5838 98.605 28.6438 98.4821 28.6861C98.3118 28.7279 98.1489 28.7959 97.9993 28.8876C97.8728 28.9556 97.9548 29.1501 97.9642 29.2579C98.0017 29.661 97.5446 29.8766 97.2236 29.9609C96.8486 30.0663 96.4596 30.113 96.0704 30.0992C95.7886 30.084 95.5082 30.0487 95.2314 29.9937C95.1048 29.9726 94.8986 29.9445 94.8025 30.0547C94.7064 30.1648 94.8775 30.289 94.9548 30.3663C95.0838 30.4809 95.2344 30.5686 95.3978 30.6241C95.4831 30.653 95.57 30.6772 95.6579 30.6968L95.7681 30.7155C96.177 30.7857 96.5939 30.7951 97.0056 30.7436C97.1635 30.7224 97.32 30.6919 97.4743 30.6522C97.6327 30.6213 97.7828 30.5574 97.915 30.4648C97.9462 30.4399 97.9705 30.4075 97.9857 30.3706C98.0009 30.3337 98.0064 30.2935 98.0017 30.2539C97.9865 30.1955 97.9865 30.1341 98.0017 30.0758C98.0285 30.0165 98.0726 29.9666 98.1282 29.9328C98.2105 29.8651 98.2974 29.8032 98.3884 29.7477C98.573 29.656 98.7461 29.5427 98.904 29.4102C98.9676 29.3407 99.0078 29.253 99.0189 29.1595C99.0173 29.0658 99.0365 28.973 99.0751 28.8876C99.126 28.8056 99.192 28.734 99.2696 28.6767C99.347 28.6205 99.429 28.576 99.504 28.5267C99.6321 28.4407 99.7336 28.3206 99.797 28.1799C99.8568 28.0535 99.9266 27.9321 100.006 27.8167C100.092 27.7042 100.191 27.5987 100.287 27.4933C100.521 27.2402 100.788 27.0059 101.002 26.7293C101.221 26.4343 101.414 26.1206 101.578 25.792C101.874 25.2366 102.176 24.6905 102.516 24.1515" fill="#161616"/>
<path d="M96.9352 31.3601C96.3772 31.4391 95.8095 31.4169 95.2594 31.2944C95.1921 31.2745 95.1205 31.2745 95.0532 31.2944C94.9719 31.3149 94.897 31.3551 94.8352 31.4116C94.7662 31.4837 94.7042 31.5621 94.65 31.646C94.5921 31.7289 94.5278 31.8072 94.4578 31.8803C94.3969 31.9365 94.2375 32.0771 94.186 31.9342C94.1589 31.8117 94.1712 31.6837 94.2211 31.5686C94.2821 31.3976 94.3946 31.2382 94.4391 31.0624C94.4391 31.0273 94.4602 30.964 94.4227 30.9429C94.3613 30.9007 94.3033 30.8537 94.2493 30.8023C94.1919 30.7512 94.1524 30.683 94.1368 30.6078C94.1203 30.5539 94.0899 30.6078 94.0735 30.6336C94.0289 30.7039 93.9844 30.7765 93.9422 30.8492C93.7899 31.0999 93.6446 31.3554 93.5086 31.6178C93.3919 31.8508 93.2947 32.093 93.218 32.342C93.1149 32.67 93.0164 32.9981 92.9227 33.3285C92.8289 33.659 92.7586 33.9847 92.6743 34.3151C92.6356 34.4737 92.5886 34.6301 92.5336 34.7838C92.5026 34.8813 92.4533 34.972 92.3883 35.051C92.3274 35.1213 92.25 35.1799 92.1821 35.2455C92.0453 35.3644 91.9358 35.5115 91.861 35.6767C91.7895 35.839 91.7474 36.0128 91.7368 36.1899C91.7344 36.2211 91.7344 36.2524 91.7368 36.2836C91.7368 36.3024 91.7157 36.3352 91.7063 36.3516C91.6681 36.4444 91.6437 36.5423 91.6336 36.6422C91.6221 37.0161 91.7341 37.3835 91.9524 37.6873C91.9782 37.7319 92.1188 37.7014 92.1657 37.7014C92.2125 37.7014 92.3133 37.6709 92.3344 37.7248C92.461 38.0599 92.5969 38.3927 92.7399 38.7208C92.8403 39.0014 93.0154 39.2493 93.2461 39.4379C93.5585 39.6421 93.9056 39.7874 94.2703 39.8667C94.6063 39.952 94.953 39.9876 95.2993 39.9722C95.4307 39.9851 95.563 39.9581 95.6789 39.8948C95.7129 39.8519 95.7354 39.8011 95.7446 39.7472C95.76 39.6699 95.76 39.5902 95.7446 39.5129C95.7324 39.3429 95.6621 39.1824 95.5453 39.0582C95.4398 38.9667 95.3278 38.8829 95.2102 38.8075C95.1164 38.7442 95.0227 38.6856 94.9266 38.627C94.8891 38.6005 94.8579 38.5661 94.8352 38.5263C94.6257 38.2294 94.4724 37.8966 94.3829 37.5444C94.2841 37.2103 94.2328 36.864 94.2305 36.5156C94.2305 36.4828 94.2188 36.4289 94.2539 36.4172C94.2922 36.4071 94.327 36.3868 94.3547 36.3586C94.3813 36.3345 94.4013 36.3039 94.4128 36.2699C94.4243 36.2358 94.4269 36.1994 94.4203 36.1641C94.4203 36.0821 94.3289 36.0305 94.3055 35.9485C94.2926 35.8922 94.2926 35.8337 94.3055 35.7774C94.3573 35.4901 94.4455 35.2105 94.568 34.9455C94.8327 34.396 95.1523 33.8747 95.5219 33.3895C95.775 33.0309 96.0352 32.6864 96.3094 32.3326C96.4829 32.1123 96.6633 31.899 96.8532 31.6928C96.9 31.6389 96.9516 31.5874 96.9961 31.5311C97.0407 31.4749 97.0594 31.4585 97.0594 31.4163C97.0594 31.3741 96.9633 31.3718 96.9305 31.3718" fill="#161616"/>
<path d="M108.359 18.6561L109.146 17.1727L109.244 16.99C109.256 16.9666 109.268 16.9439 109.282 16.922C109.301 16.8868 109.336 16.8915 109.373 16.8822C109.464 16.8618 109.553 16.8368 109.641 16.8072C109.756 16.7672 109.867 16.7153 109.971 16.6525C110.058 16.5948 110.127 16.5135 110.17 16.4182C110.226 16.3413 110.292 16.2727 110.367 16.2143C110.442 16.1385 110.496 16.0438 110.522 15.9401C110.559 15.8159 110.756 15.837 110.862 15.7854C111.033 15.6964 110.977 15.5066 110.92 15.3566C110.92 15.3378 110.906 15.3566 110.902 15.3566C110.803 15.5019 110.592 15.4011 110.47 15.3566C110.348 15.3121 110.163 15.1691 110.051 15.2347C109.987 15.2699 109.973 15.373 109.95 15.4363C109.927 15.4995 109.915 15.5159 109.898 15.5558C109.852 15.6565 109.802 15.7597 109.758 15.8604C109.701 15.9919 109.633 16.1182 109.554 16.2377C109.513 16.3067 109.455 16.364 109.385 16.4041C109.31 16.4417 109.232 16.4715 109.151 16.4931C108.987 16.5395 108.814 16.5475 108.647 16.5166C108.539 16.4955 108.412 16.3994 108.3 16.4416C108.187 16.4838 108.202 16.6759 108.241 16.7908C108.271 16.8393 108.31 16.8806 108.358 16.9115C108.405 16.9424 108.459 16.962 108.516 16.9689C108.363 17.2805 108.281 17.4376 108.157 17.6719L107.878 18.2203C107.559 18.8483 107.241 19.4717 106.922 20.095C106.494 20.9386 106.064 21.7823 105.633 22.6259L104.248 25.3467L102.996 27.8002C102.703 28.3744 102.41 28.9509 102.115 29.525L101.88 29.9726C101.866 30.0031 101.85 30.0359 101.834 30.0663C101.766 30.2046 101.695 30.3405 101.63 30.4788C101.564 30.617 101.477 30.7436 101.517 30.8795C101.527 30.9127 101.546 30.9422 101.573 30.9639C101.6 30.9856 101.633 30.9985 101.668 31.0008C101.703 31.0031 101.737 30.9947 101.767 30.9768C101.796 30.9589 101.82 30.9323 101.834 30.9006C101.855 30.8654 101.873 30.8303 101.892 30.7951L102.127 30.3475L103.012 28.686C103.434 27.8971 103.855 27.1058 104.276 26.3121L105.72 23.5984C106.188 22.7079 106.663 21.8159 107.144 20.9222L108.349 18.6561" fill="#161616"/>
<path d="M112.936 10.1378C112.828 9.91224 112.702 9.69525 112.561 9.48863C112.252 9.01995 111.858 8.6239 111.584 8.13413C111.534 8.04782 111.491 7.95771 111.455 7.86463C111.413 7.7498 111.438 7.63029 111.391 7.50843C111.368 7.46512 111.334 7.42806 111.294 7.40034C111.253 7.37262 111.206 7.35504 111.157 7.34907C111.105 7.34446 111.056 7.3253 111.014 7.29379C110.973 7.26229 110.941 7.21971 110.923 7.17097C110.826 7.00757 110.712 6.8558 110.581 6.71869C110.437 6.55017 110.325 6.35729 110.25 6.14924C110.198 6.01332 110.177 5.87271 110.128 5.73679C110.1 5.65711 110.046 5.65243 109.985 5.61025C109.917 5.54802 109.871 5.46606 109.852 5.3759C109.837 5.32987 109.813 5.28754 109.781 5.25189C109.748 5.21625 109.709 5.18818 109.664 5.16968C109.63 5.15761 109.595 5.15128 109.559 5.15093C109.533 5.12047 109.507 5.08766 109.484 5.05485C109.36 4.88661 109.215 4.73533 109.052 4.60491C108.928 4.50649 108.802 4.41509 108.673 4.3237C108.638 4.29792 108.595 4.26277 108.546 4.28152C108.441 4.3237 108.509 4.47602 108.546 4.54164C108.371 4.4453 108.18 4.38326 107.981 4.35885C107.86 4.3236 107.746 4.26984 107.641 4.1995C107.592 4.16669 107.517 4.12216 107.541 4.06123C107.55 4.03757 107.562 4.01482 107.576 3.99327C107.634 3.89485 107.679 3.83158 107.74 3.73784C107.918 3.45146 108.132 3.18919 108.377 2.95748C108.522 2.84264 108.656 2.71563 108.778 2.57784C108.827 2.52238 108.852 2.45007 108.849 2.3763C108.825 2.19658 108.767 2.02311 108.677 1.86543C108.544 1.60547 108.37 1.36822 108.162 1.1624C107.881 0.879414 107.556 0.645 107.199 0.468747C106.852 0.291213 106.484 0.157397 106.104 0.0703625C105.858 0.0126362 105.606 -0.0102414 105.354 0.00240284C105.148 0.0164635 104.885 0.0750493 104.806 0.300019C104.78 0.432818 104.766 0.567777 104.766 0.70309C104.752 0.904024 104.724 1.10372 104.681 1.30067C104.646 1.42845 104.618 1.55838 104.599 1.68968C104.605 1.76001 104.626 1.82816 104.662 1.88902C104.698 1.94989 104.747 2.0019 104.806 2.04119C104.874 2.10212 105.077 2.22867 104.977 2.33881C104.876 2.44895 104.761 2.38099 104.677 2.3599C104.592 2.33881 104.496 2.29428 104.402 2.26382C104.309 2.23335 104.184 2.19586 104.077 2.16071C103.887 2.09405 103.689 2.05383 103.488 2.04119C103.339 2.03448 103.19 2.05758 103.05 2.10915C102.909 2.1516 102.787 2.24194 102.706 2.36459C102.681 2.43748 102.681 2.51609 102.704 2.58928C102.727 2.66246 102.773 2.72651 102.834 2.77234C102.91 2.83432 102.996 2.88269 103.088 2.91529C103.182 2.93925 103.265 2.99566 103.322 3.07465C103.329 3.08465 103.334 3.09621 103.336 3.10842C103.338 3.12062 103.337 3.13313 103.334 3.14495C103.33 3.15678 103.324 3.16759 103.315 3.17654C103.307 3.18549 103.296 3.19232 103.284 3.19651C103.245 3.2176 103.198 3.2176 103.158 3.23869C103.125 3.25496 103.096 3.27721 103.071 3.3043C103.019 3.38133 102.984 3.46883 102.969 3.56071C102.954 3.65259 102.959 3.74663 102.984 3.83626C103.008 3.99093 103.071 4.14091 103.088 4.30495C103.094 4.33616 103.093 4.36825 103.086 4.39927C103.079 4.43029 103.066 4.45959 103.048 4.4854C103.004 4.52361 102.948 4.54447 102.891 4.54398C102.795 4.5557 102.797 4.59085 102.83 4.67521C102.851 4.72343 102.891 4.7613 102.94 4.78067C103.099 4.82087 103.265 4.82963 103.427 4.80645C103.51 4.81268 103.589 4.83875 103.659 4.88243C103.729 4.92611 103.787 4.98608 103.828 5.05719C103.853 5.09413 103.89 5.1216 103.932 5.1352C103.975 5.1488 104.021 5.14773 104.063 5.13218C104.147 5.09469 104.077 4.98689 104.044 4.93768C103.918 4.7834 103.837 4.59788 103.809 4.40103C103.783 4.31826 103.781 4.22941 103.806 4.14588C103.83 4.06236 103.879 3.988 103.945 3.93235C103.979 3.90829 104.017 3.89114 104.057 3.88189C104.097 3.87263 104.139 3.87146 104.18 3.87845C104.22 3.89337 104.256 3.91846 104.284 3.95129C104.312 3.98413 104.331 4.02361 104.339 4.06592C104.395 4.25574 104.367 4.45493 104.433 4.64475C104.462 4.73258 104.511 4.81267 104.576 4.87909C104.63 4.93299 104.754 5.06657 104.838 5.01267C104.923 4.95877 104.883 4.86738 104.878 4.8041C104.863 4.71438 104.859 4.623 104.866 4.53226C104.877 4.43041 104.9 4.33036 104.937 4.23465C104.946 4.19877 104.969 4.16775 105 4.14778C105.031 4.1278 105.069 4.12033 105.106 4.12685C105.181 4.13257 105.254 4.15584 105.319 4.19481C105.404 4.22926 105.476 4.29106 105.523 4.37057C105.557 4.44678 105.587 4.52504 105.612 4.60491C105.624 4.63405 105.644 4.65982 105.668 4.68016C105.693 4.70051 105.721 4.71486 105.752 4.72208C105.907 4.7515 106.064 4.76407 106.221 4.75958C106.291 4.75725 106.36 4.77172 106.423 4.80176C106.463 4.82754 106.463 4.89315 106.465 4.93534C106.471 5.1159 106.466 5.29665 106.451 5.47667C106.451 5.58212 106.43 5.71101 106.296 5.71101C106.228 5.71101 106.146 5.68758 106.106 5.75554C106.066 5.8235 106.01 5.93833 105.963 6.03206C105.856 6.19432 105.777 6.37333 105.729 6.56168C105.733 6.64701 105.714 6.73186 105.675 6.80774C105.645 6.84403 105.608 6.87289 105.565 6.89201C105.522 6.91114 105.476 6.92 105.429 6.91788C105.378 6.91827 105.327 6.91036 105.279 6.89445C105.239 6.87597 105.196 6.8641 105.152 6.8593C105.073 6.8593 105.19 6.97178 105.204 6.98116C105.358 7.09832 105.547 7.15875 105.741 7.15223C105.806 7.14806 105.867 7.12252 105.916 7.07958C105.957 7.03153 105.986 6.97452 106.001 6.9132C106.067 6.78524 106.151 6.66697 106.249 6.56168C106.373 6.40701 106.484 6.23829 106.613 6.09299C106.717 5.98221 106.812 5.86307 106.896 5.73679C107 5.56843 107.062 5.37824 107.079 5.1814C107.079 5.08063 107.095 4.97752 107.112 4.87675C107.128 4.77598 107.147 4.72208 107.25 4.72677C107.327 4.74127 107.402 4.76487 107.473 4.79707C107.557 4.82285 107.641 4.84394 107.728 4.86269C107.859 4.88959 107.993 4.90138 108.127 4.89784C108.239 4.89415 108.35 4.86868 108.452 4.82285C108.511 4.79707 108.607 4.74083 108.607 4.65178C108.674 4.72298 108.745 4.78953 108.82 4.85097C108.872 4.90018 108.952 4.96111 108.966 4.9822C108.979 5.01315 108.985 5.04697 108.982 5.08063C108.987 5.14962 108.999 5.21794 109.017 5.28451C109.052 5.39934 109.207 5.39231 109.291 5.45324C109.364 5.53881 109.415 5.64102 109.439 5.75085C109.478 5.8532 109.49 5.96363 109.474 6.0719C109.472 6.18949 109.445 6.30525 109.395 6.4117C109.357 6.47029 109.254 6.48669 109.231 6.4117C109.192 6.47591 109.136 6.5279 109.069 6.56168C108.952 6.60855 108.916 6.46794 108.905 6.38827C108.893 6.30859 108.888 6.04847 108.851 6.04612C108.813 6.04378 108.743 6.10002 108.694 6.08128C108.645 6.06253 108.621 5.99457 108.593 5.96879C108.557 5.92261 108.509 5.8877 108.453 5.86819C108.398 5.84867 108.338 5.84536 108.281 5.85865C108.162 5.91255 108.312 6.03675 108.352 6.09299C108.499 6.31093 108.527 6.61558 108.715 6.79602C108.9 6.95369 109.109 7.08174 109.334 7.17566C109.445 7.2313 109.553 7.29392 109.657 7.36314C109.758 7.43344 109.831 7.52952 109.927 7.59748C110.077 7.71465 110.292 7.55998 110.428 7.6795C110.564 7.79901 110.428 7.9279 110.299 7.97243C110.195 8.00965 110.084 8.02142 109.975 8.00674C109.866 7.99206 109.761 7.95136 109.671 7.88807C109.624 7.84823 109.584 7.79901 109.54 7.75918C109.495 7.71934 109.348 7.70293 109.366 7.83417C109.376 8.04796 109.399 8.26091 109.437 8.47158C109.512 8.7692 109.734 8.87231 109.985 8.99417C110.097 9.0682 110.192 9.16381 110.266 9.27538C110.327 9.34334 110.405 9.49566 110.332 9.58237C110.259 9.66908 110.142 9.61049 110.044 9.55894C109.937 9.49228 109.838 9.41366 109.749 9.32459C109.548 9.09595 109.311 8.90334 109.045 8.75514C108.825 8.67077 108.577 8.68015 108.366 8.57703C108.186 8.47851 108.037 8.33156 107.937 8.15287C107.803 8.00708 107.622 7.9126 107.426 7.88572C107.168 7.84002 106.904 7.84002 106.645 7.88572C106.631 7.88572 106.505 7.88572 106.502 7.89978C106.5 7.91384 106.502 7.9818 106.502 8.01461C106.527 8.11503 106.571 8.20973 106.631 8.29348C106.681 8.35441 106.749 8.39893 106.802 8.45518C106.985 8.64265 106.913 8.90043 106.868 9.13009C106.835 9.26164 106.835 9.39926 106.868 9.53081C106.905 9.63533 106.948 9.73714 106.999 9.83546C107.099 10.083 107.125 10.3539 107.074 10.6158C106.875 11.9141 106.355 13.5451 106.2 13.5568C106.16 13.5568 106.102 13.524 106.078 13.3225C105.97 12.4531 105.687 9.93857 104.313 7.63966C104.189 7.43109 104.053 7.22956 103.91 7.03505C103.739 6.80071 103.542 6.58043 103.35 6.36249C103.197 6.18925 103.034 6.02494 102.863 5.87037C102.844 5.85162 102.649 5.65946 102.628 5.7157C102.607 5.77194 102.642 5.8774 102.584 6.1094C102.553 6.3154 102.463 6.50817 102.326 6.66479C102.272 6.7351 102.199 6.79368 102.145 6.86633C102.091 6.93897 102.066 6.96944 102.068 6.99053C102.07 7.01162 102.174 7.07021 102.19 7.07489C102.439 7.16422 102.674 7.28638 102.891 7.43813C102.928 7.46625 103.2 7.65372 103.125 7.72168C103.05 7.78964 102.94 7.72168 102.891 7.72168L102.443 7.61154C102.153 7.53632 101.858 7.48537 101.559 7.45922C101.31 7.42577 101.057 7.43608 100.812 7.48968C100.637 7.53143 100.47 7.6036 100.32 7.70293C100.193 7.79667 100.057 7.93728 100.235 8.0357C100.436 8.1428 100.626 8.26749 100.805 8.40831C100.997 8.60304 101.156 8.82883 101.274 9.07619C101.552 9.58706 101.63 10.1729 101.82 10.7166C102.004 11.2534 102.246 11.7688 102.541 12.2539C102.695 12.5111 102.893 12.7395 103.125 12.9288C103.314 13.0727 103.51 13.2065 103.713 13.3295C103.948 13.4725 104.182 13.592 104.416 13.742C104.51 13.8052 104.475 13.8545 104.372 13.8334C104.269 13.8123 104.182 13.7982 104.086 13.7888C103.514 13.7256 102.949 13.8545 102.377 13.8427C102.095 13.857 101.814 13.792 101.566 13.6553C101.452 13.5856 101.36 13.4833 101.304 13.3614C101.247 13.2395 101.229 13.1036 101.25 12.971C101.297 12.8421 101.426 12.9007 101.515 12.9405C101.653 13.0038 101.787 13.0764 101.923 13.142C102.063 13.2104 102.21 13.2638 102.361 13.3014C102.459 13.3225 102.675 13.3764 102.757 13.3014C102.839 13.2264 102.715 13.1046 102.675 13.0507C102.577 12.9218 102.462 12.8163 102.354 12.6851C102.246 12.5538 102.12 12.3992 101.984 12.2633C101.409 11.6587 100.772 11.1197 100.212 10.5033C99.8748 10.1512 99.6175 9.73087 99.4571 9.27069C99.4368 9.19993 99.4211 9.12791 99.4102 9.0551C99.3945 8.92352 99.4025 8.79019 99.4337 8.6614C99.504 8.44684 99.5967 8.24026 99.7102 8.04508C99.7102 8.02633 99.7665 7.95368 99.7454 7.93025C99.7243 7.90681 99.6634 7.93025 99.6423 7.94665C99.4394 8.06321 99.2717 8.23244 99.1571 8.43643C98.9733 8.78001 98.9136 9.1765 98.9884 9.55894C99.0748 10.0764 99.2114 10.5841 99.3962 11.0751C99.6002 11.6655 99.86 12.2352 100.172 12.7765C100.427 13.2244 100.72 13.6493 101.049 14.0466C101.18 14.2036 101.334 14.3349 101.466 14.4895C101.624 14.6702 101.82 14.8135 102.04 14.909C102.509 15.1223 102.996 15.2746 103.477 15.4433C103.648 15.5019 104.025 15.6495 104.191 15.7222C104.405 15.8159 104.049 15.7761 103.981 15.769C103.65 15.7315 103.31 15.6894 102.968 15.6214C102.417 15.5113 102.031 15.4503 101.796 15.3074C101.648 15.2101 101.508 15.102 101.377 14.984C101.288 14.9067 101.255 15.0098 101.248 15.073C101.228 15.2171 101.198 15.3597 101.159 15.4995C100.997 16.0058 100.733 16.4734 100.383 16.8728C100.383 16.8025 100.397 16.69 100.317 16.6572C100.238 16.6244 100.097 16.7134 100.022 16.7627C99.7907 16.9201 99.5495 17.0625 99.3001 17.1892C98.8999 17.4013 98.4435 17.4832 97.9946 17.4235C97.8093 17.3816 97.6298 17.3171 97.4602 17.2313C97.4391 17.2313 97.3829 17.1915 97.3641 17.2313C97.3454 17.2712 97.3641 17.4118 97.3946 17.4657C97.6149 17.9508 98.1915 18.1242 98.686 18.1078C98.4212 18.1828 98.1516 18.225 97.8798 18.2789C97.5212 18.3538 93.4876 19.2303 93.4876 23.411C93.4863 23.6723 93.5373 23.9313 93.6376 24.1726C93.7266 24.3765 93.8719 24.5382 93.9798 24.353C94.0439 24.2174 94.0904 24.074 94.118 23.9265C94.1555 23.8005 94.2025 23.6775 94.2587 23.5586C94.629 22.7665 95.3204 22.1526 96.0165 21.6347C96.0563 21.6065 96.0399 21.6042 96.0024 21.6112C95.7327 21.6555 95.467 21.7213 95.2079 21.8081C95.0813 21.8526 94.9571 21.8995 94.8352 21.9557C94.7696 21.9838 94.5376 22.0823 94.5024 22.012C94.4673 21.9417 94.5915 21.7917 94.6454 21.7354C95.1399 21.2105 97.3055 20.9129 98.0344 20.7231C99.7688 20.2755 101.119 19.4482 101.649 18.614C101.81 18.3609 101.306 18.546 101.21 18.4523C101.114 18.3585 101.637 18.0726 101.702 18.0422C101.962 17.9257 102.233 17.8377 102.511 17.7797C103.145 17.6296 103.799 17.5876 104.447 17.6555C104.51 17.6555 104.576 17.6743 104.639 17.6883C104.702 17.7024 104.7 17.6485 104.721 17.6274C104.938 17.4256 105.118 17.1878 105.253 16.9244C105.316 17.0767 105.389 17.2267 105.466 17.372C105.54 17.5338 105.641 17.682 105.764 17.8102C105.86 17.8992 105.933 17.8664 105.977 17.7516C106.04 17.5608 106.086 17.3647 106.113 17.1657C106.13 17.0603 106.149 16.9572 106.163 16.8517C106.163 16.8095 106.163 16.697 106.209 16.697C106.436 16.7217 106.657 16.7859 106.861 16.8869C107.058 16.9755 107.263 17.0453 107.473 17.0954C107.646 17.1306 107.817 17.1821 107.92 16.9923C107.991 16.8611 107.885 16.847 107.799 16.7744C107.739 16.7053 107.697 16.6223 107.678 16.533C107.659 16.4438 107.662 16.3511 107.688 16.2635C107.709 16.0293 107.806 15.8082 107.963 15.6331C108.173 15.4623 108.405 15.3212 108.654 15.2136C108.696 15.1902 108.888 15.0988 108.839 15.0285C108.79 14.9582 108.574 15.0285 108.525 15.0285C108.241 15.027 107.957 14.9971 107.679 14.9395C107.088 14.8317 106.648 14.6231 106.055 14.5294C105.803 14.4965 105.549 14.4965 105.298 14.5294C105.063 14.5505 104.766 14.5997 104.527 14.5997C104.294 14.6106 104.062 14.5772 103.842 14.5012C103.727 14.445 103.5 14.2669 103.655 14.1966C103.748 14.1661 103.845 14.1518 103.943 14.1544C104.067 14.1544 104.191 14.1544 104.316 14.1544C104.599 14.1544 104.885 14.1544 105.166 14.1896C105.631 14.2389 106.089 14.3419 106.531 14.4966C106.674 13.8709 107.037 12.7015 107.175 12.0781C107.271 11.6423 107.395 11.1736 107.454 10.7658C108.02 10.9314 108.599 11.052 109.184 11.1267C109.81 11.2316 110.443 11.2935 111.077 11.3118C111.475 11.3307 111.873 11.3095 112.266 11.2486C112.416 11.2141 112.559 11.153 112.688 11.0681C112.838 10.9791 113.058 10.8338 113.072 10.6486C113.069 10.4698 113.022 10.2944 112.936 10.1378ZM106.765 4.49477C106.704 4.5182 106.624 4.47134 106.577 4.44087C106.221 4.22293 106.052 3.80111 105.68 3.59723C105.584 3.54568 105.415 3.49647 105.272 3.40976C105.225 3.38164 105.101 3.31133 105.089 3.25509C105.073 3.15901 105.162 3.1098 105.394 3.13323C105.655 3.15052 105.902 3.25445 106.097 3.42851C106.239 3.58722 106.357 3.7656 106.449 3.95812C106.515 4.06717 106.594 4.16855 106.683 4.26043C106.731 4.3046 106.772 4.35598 106.805 4.41275C106.808 4.42074 106.809 4.42924 106.809 4.43774C106.808 4.44625 106.806 4.45458 106.802 4.46224C106.799 4.46989 106.793 4.47672 106.787 4.48231C106.78 4.4879 106.773 4.49214 106.765 4.49477ZM104.574 10.5268C104.531 10.6322 104.381 10.4166 104.339 10.3815C103.995 10.0136 103.636 9.65033 103.296 9.28475C103.219 9.20273 103.141 9.12071 103.062 9.03635C102.982 8.95199 102.942 8.88168 102.991 8.80201C103.061 8.72044 103.156 8.66503 103.261 8.64499C103.371 8.60984 103.678 8.51845 103.763 8.6614C103.802 8.7317 103.713 8.84653 103.676 8.89574C103.638 8.94495 103.695 9.0551 103.744 9.11603C103.897 9.29119 104.039 9.47591 104.168 9.66908C104.292 9.86473 104.402 10.0692 104.496 10.2807C104.531 10.3463 104.604 10.4518 104.574 10.5268Z" fill="#161616"/>
</g>
<defs>
<clipPath id="clip0_706_3728">
<rect width="120" height="105" fill="white"/>
</clipPath>
</defs>
</svg>
