<svg width="213" height="25" viewBox="0 0 213 25" fill="none" xmlns="http://www.w3.org/2000/svg">
<path d="M0.48 4.84H5.52V19H9.408V4.84H14.448V1.24H0.48V4.84ZM22.86 7V13.24C22.86 15.208 22.212 16.024 20.628 16.024C19.116 16.024 18.444 15.16 18.444 13.192V7H14.748V14.536C14.748 17.488 16.428 19.312 19.164 19.312C20.604 19.312 22.092 18.64 22.836 17.656L23.076 19H26.556V7H22.86ZM37.5855 7C37.0815 6.88 36.6015 6.832 36.1695 6.832C34.5615 6.832 33.5055 7.624 33.0015 8.8L32.8095 7.024H29.3295V19H33.0255V13.792C33.0255 11.416 34.2975 10.48 36.4095 10.48H37.5855V7ZM44.7713 19V10.072H47.0513V7H44.7713V3.28H41.0753V7H38.7953V10.072H41.0753V19H44.7713ZM52.4083 19V0.904H48.7123V19H52.4083ZM60.7491 19.312C64.0371 19.312 66.4131 17.608 66.8451 14.944H63.4611C63.1971 15.808 62.2131 16.312 60.8211 16.312C59.1891 16.312 58.3011 15.568 58.0851 13.984L66.7971 13.936V13C66.7971 9.088 64.4451 6.616 60.6771 6.616C57.0531 6.616 54.5331 9.232 54.5331 12.976C54.5331 16.672 57.1251 19.312 60.7491 19.312ZM60.7011 9.616C62.1891 9.616 63.1251 10.432 63.1251 11.704H58.1331C58.4211 10.264 59.2371 9.616 60.7011 9.616ZM74.8093 6.4C74.8093 9.304 76.4413 11.104 79.6093 11.752L82.3213 12.304C83.4973 12.544 83.9533 13.048 83.9533 14.032C83.9533 15.16 82.8493 15.856 81.0973 15.856C79.3693 15.856 78.4093 15.136 78.4093 13.84H74.5453C74.5453 17.176 77.1133 19.312 81.0733 19.312C85.1533 19.312 87.8413 17.08 87.8413 13.648C87.8413 10.84 86.3293 9.328 83.1613 8.68L80.4973 8.128C79.2493 7.864 78.6973 7.336 78.6973 6.256C78.6973 5.08 79.7053 4.36 81.2893 4.36C82.7533 4.36 83.6893 5.128 83.6893 6.376H87.5533C87.5533 3.016 85.1533 0.904 81.3373 0.904C77.5213 0.904 74.8093 3.184 74.8093 6.4ZM89.9623 24.76H93.6583V17.8C94.3543 18.712 95.8903 19.336 97.5463 19.336C101.122 19.336 103.186 16.6 103.186 12.808C103.186 8.944 100.858 6.616 97.5223 6.616C95.8183 6.616 94.3063 7.36 93.6343 8.464L93.4423 7H89.9623V24.76ZM93.6823 13C93.6823 11.2 94.8823 10 96.6103 10C98.3623 10 99.4663 11.224 99.4663 13C99.4663 14.776 98.3623 16 96.6103 16C94.8823 16 93.6823 14.8 93.6823 13ZM104.666 12.976C104.666 16.768 107.45 19.288 111.29 19.288C115.106 19.288 117.89 16.768 117.89 12.976C117.89 9.184 115.106 6.64 111.29 6.64C107.45 6.64 104.666 9.184 104.666 12.976ZM108.386 12.952C108.386 11.152 109.562 9.952 111.29 9.952C112.994 9.952 114.17 11.152 114.17 12.952C114.17 14.776 112.994 15.976 111.29 15.976C109.562 15.976 108.386 14.776 108.386 12.952ZM124.763 19V10.072H127.043V7H124.763V3.28H121.067V7H118.787V10.072H121.067V19H124.763ZM134.144 4.84H139.184V19H143.072V4.84H148.112V1.24H134.144V4.84ZM151.454 19.312C153.254 19.312 154.838 18.52 155.222 17.416L155.462 19H158.726V11.992C158.726 8.56 156.758 6.616 153.278 6.616C149.846 6.616 147.614 8.392 147.614 11.104H150.686C150.686 10.024 151.526 9.424 153.086 9.424C154.406 9.424 155.126 10.048 155.126 11.224V11.416L151.766 11.68C148.886 11.896 147.326 13.264 147.326 15.472C147.326 17.824 148.91 19.312 151.454 19.312ZM152.75 16.576C151.622 16.576 151.094 16.168 151.094 15.304C151.094 14.536 151.67 14.176 153.278 14.032L155.15 13.864V14.512C155.15 15.88 154.166 16.576 152.75 16.576ZM163.2 5.128C164.352 5.128 165.288 4.192 165.288 3.016C165.288 1.84 164.352 0.927999 163.2 0.927999C162.024 0.927999 161.088 1.84 161.088 3.016C161.088 4.192 162.024 5.128 163.2 5.128ZM161.376 19H165.072V7H161.376V19ZM170.557 19H174.157L175.309 15.256C176.077 12.736 176.293 11.8 176.389 11.296C176.461 11.8 176.773 13.216 177.373 15.184L178.525 19H181.957L186.157 7H182.245L181.093 10.912C180.973 11.344 180.397 13.456 180.253 14.32C180.133 13.552 179.557 11.32 179.437 10.912L178.309 7H174.517L173.293 10.912C172.765 12.592 172.645 13.048 172.429 14.32C172.237 13.12 171.973 11.944 171.685 10.912L170.581 7H166.693L170.557 19ZM190.805 19.312C192.605 19.312 194.189 18.52 194.573 17.416L194.813 19H198.077V11.992C198.077 8.56 196.109 6.616 192.629 6.616C189.197 6.616 186.965 8.392 186.965 11.104H190.037C190.037 10.024 190.877 9.424 192.437 9.424C193.757 9.424 194.477 10.048 194.477 11.224V11.416L191.117 11.68C188.237 11.896 186.677 13.264 186.677 15.472C186.677 17.824 188.261 19.312 190.805 19.312ZM192.101 16.576C190.973 16.576 190.445 16.168 190.445 15.304C190.445 14.536 191.021 14.176 192.629 14.032L194.501 13.864V14.512C194.501 15.88 193.517 16.576 192.101 16.576ZM204.424 19V12.424C204.424 10.936 205.36 9.976 206.824 9.976C208.096 9.976 208.936 10.96 208.936 12.472V19H212.632V11.584C212.632 8.44 210.976 6.616 208.12 6.616C206.56 6.616 205.192 7.216 204.448 8.248L204.208 7H200.728V19H204.424Z" fill="#161616"/>
</svg>
