<svg width="253" height="34" viewBox="0 0 253 34" fill="none" xmlns="http://www.w3.org/2000/svg">
<path d="M9 6.25H5C2.79086 6.25 1 8.04086 1 10.25V14.25" stroke="#161616" stroke-width="2" stroke-linejoin="round"/>
<path d="M1 19.75L1 23.75C1 25.9591 2.79086 27.75 5 27.75L9 27.75" stroke="#161616" stroke-width="2" stroke-linejoin="round"/>
<path d="M23 14.25L23 10.25C23 8.04086 21.2091 6.25 19 6.25L15 6.25" stroke="#161616" stroke-width="2" stroke-linejoin="round"/>
<path d="M15 27.75L19 27.75C21.2091 27.75 23 25.9591 23 23.75L23 19.75" stroke="#161616" stroke-width="2" stroke-linejoin="round"/>
<path d="M39.48 11.84H44.52V26H48.408V11.84H53.448V8.24H39.48V11.84ZM61.86 14V20.24C61.86 22.208 61.212 23.024 59.628 23.024C58.116 23.024 57.444 22.16 57.444 20.192V14H53.748V21.536C53.748 24.488 55.428 26.312 58.164 26.312C59.604 26.312 61.092 25.64 61.836 24.656L62.076 26H65.556V14H61.86ZM76.5855 14C76.0815 13.88 75.6015 13.832 75.1695 13.832C73.5615 13.832 72.5055 14.624 72.0015 15.8L71.8095 14.024H68.3295V26H72.0255V20.792C72.0255 18.416 73.2975 17.48 75.4095 17.48H76.5855V14ZM83.7713 26V17.072H86.0513V14H83.7713V10.28H80.0753V14H77.7953V17.072H80.0753V26H83.7713ZM91.4083 26V7.904H87.7123V26H91.4083ZM99.7491 26.312C103.037 26.312 105.413 24.608 105.845 21.944H102.461C102.197 22.808 101.213 23.312 99.8211 23.312C98.1891 23.312 97.3011 22.568 97.0851 20.984L105.797 20.936V20C105.797 16.088 103.445 13.616 99.6771 13.616C96.0531 13.616 93.5331 16.232 93.5331 19.976C93.5331 23.672 96.1251 26.312 99.7491 26.312ZM99.7011 16.616C101.189 16.616 102.125 17.432 102.125 18.704H97.1331C97.4211 17.264 98.2371 16.616 99.7011 16.616ZM113.809 13.4C113.809 16.304 115.441 18.104 118.609 18.752L121.321 19.304C122.497 19.544 122.953 20.048 122.953 21.032C122.953 22.16 121.849 22.856 120.097 22.856C118.369 22.856 117.409 22.136 117.409 20.84H113.545C113.545 24.176 116.113 26.312 120.073 26.312C124.153 26.312 126.841 24.08 126.841 20.648C126.841 17.84 125.329 16.328 122.161 15.68L119.497 15.128C118.249 14.864 117.697 14.336 117.697 13.256C117.697 12.08 118.705 11.36 120.289 11.36C121.753 11.36 122.689 12.128 122.689 13.376H126.553C126.553 10.016 124.153 7.904 120.337 7.904C116.521 7.904 113.809 10.184 113.809 13.4ZM128.962 31.76H132.658V24.8C133.354 25.712 134.89 26.336 136.546 26.336C140.122 26.336 142.186 23.6 142.186 19.808C142.186 15.944 139.858 13.616 136.522 13.616C134.818 13.616 133.306 14.36 132.634 15.464L132.442 14H128.962V31.76ZM132.682 20C132.682 18.2 133.882 17 135.61 17C137.362 17 138.466 18.224 138.466 20C138.466 21.776 137.362 23 135.61 23C133.882 23 132.682 21.8 132.682 20ZM143.666 19.976C143.666 23.768 146.45 26.288 150.29 26.288C154.106 26.288 156.89 23.768 156.89 19.976C156.89 16.184 154.106 13.64 150.29 13.64C146.45 13.64 143.666 16.184 143.666 19.976ZM147.386 19.952C147.386 18.152 148.562 16.952 150.29 16.952C151.994 16.952 153.17 18.152 153.17 19.952C153.17 21.776 151.994 22.976 150.29 22.976C148.562 22.976 147.386 21.776 147.386 19.952ZM163.763 26V17.072H166.043V14H163.763V10.28H160.067V14H157.787V17.072H160.067V26H163.763ZM173.144 11.84H178.184V26H182.072V11.84H187.112V8.24H173.144V11.84ZM190.454 26.312C192.254 26.312 193.838 25.52 194.222 24.416L194.462 26H197.726V18.992C197.726 15.56 195.758 13.616 192.278 13.616C188.846 13.616 186.614 15.392 186.614 18.104H189.686C189.686 17.024 190.526 16.424 192.086 16.424C193.406 16.424 194.126 17.048 194.126 18.224V18.416L190.766 18.68C187.886 18.896 186.326 20.264 186.326 22.472C186.326 24.824 187.91 26.312 190.454 26.312ZM191.75 23.576C190.622 23.576 190.094 23.168 190.094 22.304C190.094 21.536 190.67 21.176 192.278 21.032L194.15 20.864V21.512C194.15 22.88 193.166 23.576 191.75 23.576ZM202.2 12.128C203.352 12.128 204.288 11.192 204.288 10.016C204.288 8.84 203.352 7.928 202.2 7.928C201.024 7.928 200.088 8.84 200.088 10.016C200.088 11.192 201.024 12.128 202.2 12.128ZM200.376 26H204.072V14H200.376V26ZM209.557 26H213.157L214.309 22.256C215.077 19.736 215.293 18.8 215.389 18.296C215.461 18.8 215.773 20.216 216.373 22.184L217.525 26H220.957L225.157 14H221.245L220.093 17.912C219.973 18.344 219.397 20.456 219.253 21.32C219.133 20.552 218.557 18.32 218.437 17.912L217.309 14H213.517L212.293 17.912C211.765 19.592 211.645 20.048 211.429 21.32C211.237 20.12 210.973 18.944 210.685 17.912L209.581 14H205.693L209.557 26ZM229.805 26.312C231.605 26.312 233.189 25.52 233.573 24.416L233.813 26H237.077V18.992C237.077 15.56 235.109 13.616 231.629 13.616C228.197 13.616 225.965 15.392 225.965 18.104H229.037C229.037 17.024 229.877 16.424 231.437 16.424C232.757 16.424 233.477 17.048 233.477 18.224V18.416L230.117 18.68C227.237 18.896 225.677 20.264 225.677 22.472C225.677 24.824 227.261 26.312 229.805 26.312ZM231.101 23.576C229.973 23.576 229.445 23.168 229.445 22.304C229.445 21.536 230.021 21.176 231.629 21.032L233.501 20.864V21.512C233.501 22.88 232.517 23.576 231.101 23.576ZM243.424 26V19.424C243.424 17.936 244.36 16.976 245.824 16.976C247.096 16.976 247.936 17.96 247.936 19.472V26H251.632V18.584C251.632 15.44 249.976 13.616 247.12 13.616C245.56 13.616 244.192 14.216 243.448 15.248L243.208 14H239.728V26H243.424Z" fill="#161616"/>
</svg>
